<svg xmlns="http://www.w3.org/2000/svg" width="192" height="192" viewBox="0 0 192 192">
    <g fill="none" fill-rule="evenodd">
        <path fill="#FFF" fill-opacity=".01" d="M0 0h192v192H0z"/>
        <circle cx="96" cy="99.2" r="76.8" fill="#E1E5ED"/>
        <path fill="#FFF" d="M147.467 146.133H60V90.278l7.656 7.724L76.578 89l8.922 9.002L94.423 89l9.051 9.132L112.526 89l9.052 9.132L130.63 89l9.052 9.132 7.785-7.854v55.855zM152.12 71.74l-8.72-6.164-7.33 10.565-10.5-7.421-7.328 10.565-10.5-7.422-7.328 10.565-10.35-7.315-7.224 10.414-10.35-7.315-6.414 9.247-5.729-32.49 86.138-15.189 5.635 31.96z"/>
        <path fill="#FFB348" d="M56.099 32.025l86.138-15.189 4.445 25.212-86.138 15.188z"/>
        <path stroke="#2C3644" stroke-width="4" d="M140.04 60.813l-4.619-26.19-82.198 14.494 4.711 26.72 4.795-6.912 10.35 7.315 7.224-10.414 10.35 7.315 7.328-10.565 10.5 7.422 7.329-10.566 10.5 7.422 7.328-10.565 6.402 4.524z"/>
        <path stroke="#2C3644" stroke-width="4" d="M49.793 28.127l82.199-14.494 3.75 21.272-82.198 14.494zM137.733 86.137l-5.785 5.836-9.052-9.132-9.051 9.132-9.052-9.132-9.052 9.132-9.052-9.132-8.922 9.002-8.922-9.002-8.923 9.002-5.655-5.706V135.6h83.466V86.137z"/>
        <g fill="#2C3644">
            <path d="M65.067 126.933h-2.134v-25.6h2.134zM69.333 126.933H67.2v-25.6h2.133zM73.6 126.933h-2.133v-25.6H73.6zM83.2 126.933h-4.267v-25.6H83.2zM91.733 126.933h-4.266v-25.6h4.266zM96 126.933h-2.133v-25.6H96zM104.533 126.933H102.4v-25.6h2.133zM107.733 126.933H105.6v-25.6h2.133zM113.067 126.933h-2.134v-25.6h2.134zM121.6 126.933h-6.4v-25.6h6.4zM129.067 126.933h-2.134v-25.6h2.134z"/>
        </g>
    </g>
</svg>
