<svg xmlns="http://www.w3.org/2000/svg" width="192" height="192" viewBox="0 0 192 192">
    <g fill="none" fill-rule="evenodd">
        <path fill="#FFF" fill-opacity=".01" d="M0 0h192v192H0z"/>
        <circle cx="96" cy="99.2" r="76.8" fill="#E1E5ED"/>
        <path fill="#FFF" d="M60.8 48h87.467v98.133H60.8z"/>
        <path fill="#FFB348" d="M60.8 24.667h87.467v25.6H60.8z"/>
        <path stroke="#2C3644" stroke-width="4" d="M54.267 41.467h83.467V135.6H54.267zM54.267 19.733h83.467v21.6H54.267z"/>
        <g fill="#2C3644">
            <path d="M65.067 126.933h-2.134v-25.6h2.134zM69.333 126.933H67.2v-25.6h2.133zM73.6 126.933h-2.133v-25.6H73.6zM83.2 126.933h-4.267v-25.6H83.2zM91.733 126.933h-4.266v-25.6h4.266zM96 126.933h-2.133v-25.6H96zM104.533 126.933H102.4v-25.6h2.133zM107.733 126.933H105.6v-25.6h2.133zM113.067 126.933h-2.134v-25.6h2.134zM121.6 126.933h-6.4v-25.6h6.4zM129.067 126.933h-2.134v-25.6h2.134z"/>
        </g>
    </g>
</svg>
