<svg width="40" height="40" viewBox="0 0 40 40" fill="none" xmlns="http://www.w3.org/2000/svg">
<path d="M31.7704 0.574411C31.0306 -0.19147 29.8749 -0.19147 29.1351 0.574411L13.093 17.2306C12.7692 17.5659 12.5845 18.0443 12.5383 18.523L12.3071 26.7077C12.3071 27.2342 12.4919 27.7607 12.8618 28.1437C13.2317 28.5266 13.6938 28.7179 14.1563 28.7179H14.2024L22.108 28.4786C22.5704 28.4786 23.0325 28.2873 23.3563 27.9043L39.4446 11.2481C40.1844 10.4822 40.1844 9.28562 39.4446 8.51973L31.7704 0.574411ZM21.276 24.6494L16.0519 24.7929L16.1905 19.3844L25.9915 9.23746L31.077 14.5022L21.276 24.6494ZM33.6659 11.7743L28.6268 6.55734L30.4759 4.643L35.5149 9.85996L33.6659 11.7743Z" fill="white"/>
<path d="M14.2314 8.89837C15.2682 8.89837 16.1162 8.0503 16.1162 7.01356C16.1162 5.97682 15.2682 5.12875 14.2314 5.12875L1.88481 5.12842C0.848072 5.12842 0 5.97649 0 7.01323V38.1154C0 39.1521 0.848072 40.0002 1.88481 40.0002H32.987C34.0237 40.0002 34.8718 39.1521 34.8718 38.1154V25.0619C34.8718 24.0252 34.0237 23.1771 32.987 23.1771C31.9502 23.1771 31.1022 24.0252 31.1022 25.0619V36.2304H3.76996V8.89821L14.2314 8.89837Z" fill="white"/>
</svg>
