<svg width="21" height="19" viewBox="0 0 21 19" fill="none" xmlns="http://www.w3.org/2000/svg">
<path d="M20.05 11.3132C20.05 10.9251 19.8376 10.5663 19.4931 10.3723C19.1484 10.178 18.7239 10.178 18.3792 10.3723C18.0344 10.5663 17.8223 10.9251 17.8223 11.3132V14.9351C17.8223 15.4154 17.6265 15.8763 17.2784 16.2158C16.9303 16.5554 16.4582 16.7461 15.9658 16.7461H4.08417C3.59181 16.7461 3.11965 16.5554 2.77156 16.2158C2.42346 15.8763 2.22766 15.4154 2.22766 14.9351V11.3132C2.22766 10.9251 2.01554 10.5663 1.67081 10.3723C1.32609 10.178 0.901559 10.178 0.556846 10.3723C0.212378 10.5663 0 10.9251 0 11.3132V14.9351C0 15.992 0.430198 17.0054 1.19632 17.7525C1.96219 18.4996 3.00104 18.9195 4.08418 18.9195H15.9658C17.0489 18.9195 18.0878 18.4996 18.8537 17.7525C19.6198 17.0054 20.05 15.992 20.05 14.9351L20.05 11.3132Z" fill="white"/>
<path d="M10.0292 14.8287C10.3309 14.8287 10.6202 14.7121 10.8334 14.5047C11.0468 14.297 11.1666 14.0154 11.1666 13.722V3.59762L14.1046 6.18036C14.4103 6.4102 14.8149 6.47351 15.1793 6.34817C15.5434 6.22283 15.8174 5.92634 15.9068 5.56061C15.9961 5.19463 15.8885 4.80982 15.6212 4.53829L10.7874 0.280538L10.7191 0.232666L10.6358 0.173727L10.5335 0.118393L10.4462 0.0777264L10.3248 0.0409227L10.2376 0.0187884V0.018531C10.1728 0.0066916 10.1067 0.000514586 10.0406 0H10.0292C9.96307 0.000514718 9.89696 0.0066916 9.83217 0.018531L9.74489 0.0406653L9.62351 0.077469L9.53624 0.118135L9.4339 0.17347L9.3506 0.232409L9.271 0.280538L4.42975 4.54218C4.1624 4.81346 4.05476 5.19849 4.14414 5.56424C4.23326 5.92997 4.50723 6.22674 4.87163 6.35206C5.23577 6.47714 5.64035 6.41409 5.94607 6.18399L8.88405 3.60125L8.88431 13.7223C8.88431 14.017 9.00517 14.2999 9.21989 14.5076C9.43489 14.7153 9.72605 14.8311 10.0291 14.829L10.0292 14.8287Z" fill="white"/>
</svg>
