<svg width="24" height="24" viewBox="0 0 24 24" fill="none" xmlns="http://www.w3.org/2000/svg">
<path d="M12 23C18.0751 23 23 18.0751 23 12C23 5.92487 18.0751 1 12 1C5.92487 1 1 5.92487 1 12C1 18.0751 5.92487 23 12 23Z" stroke="#64bcfc" stroke-width="1.6" stroke-linecap="round" stroke-linejoin="round"/>
<path d="M19 20.75V19C19 18.0717 18.6313 17.1815 17.9749 16.5251C17.3185 15.8687 16.4283 15.5 15.5 15.5H8.5C7.57174 15.5 6.6815 15.8687 6.02513 16.5251C5.36875 17.1815 5 18.0717 5 19V20.75" stroke="#64bcfc" stroke-width="1.6" stroke-linecap="round" stroke-linejoin="round"/>
<path d="M12 12C13.933 12 15.5 10.433 15.5 8.5C15.5 6.567 13.933 5 12 5C10.067 5 8.5 6.567 8.5 8.5C8.5 10.433 10.067 12 12 12Z" stroke="#64bcfc" stroke-width="1.6" stroke-linecap="round" stroke-linejoin="round"/>
</svg>
