<svg width="55" height="50" viewBox="0 0 55 50" fill="none" xmlns="http://www.w3.org/2000/svg">
<rect width="55" height="50" fill="#2C3644"/>
<path d="M43.6299 37.8943H12.7806C12.1838 37.8943 11.6673 37.6834 11.2312 37.2616C10.7951 36.8398 10.577 36.3402 10.577 35.763V14.4501C10.577 13.8507 10.7951 13.3456 11.2312 12.9349C11.6673 12.5242 12.1838 12.3188 12.7806 12.3188H43.6299C44.2267 12.3188 44.7431 12.5242 45.1793 12.9349C45.6154 13.3456 45.8334 13.8507 45.8334 14.4501V35.763C45.8334 36.3402 45.6154 36.8398 45.1793 37.2616C44.7431 37.6834 44.2267 37.8943 43.6299 37.8943ZM16.0858 33.6317H24.8999C25.1983 33.6317 25.4566 33.5263 25.6746 33.3154C25.8927 33.1044 26.0017 32.8547 26.0017 32.5661C26.0017 32.2775 25.8927 32.0277 25.6746 31.8168C25.4566 31.6059 25.1983 31.5004 24.8999 31.5004H16.0858C15.7874 31.5004 15.5292 31.6059 15.3112 31.8168C15.0931 32.0277 14.9841 32.2775 14.9841 32.5661C14.9841 32.8547 15.0931 33.1044 15.3112 33.3154C15.5292 33.5263 15.7874 33.6317 16.0858 33.6317ZM27.1035 22.9753H16.0858C15.7874 22.9753 15.5292 23.0807 15.3112 23.2916C15.0931 23.5026 14.9841 23.7523 14.9841 24.0409C14.9841 24.3295 15.0931 24.5793 15.3112 24.7902C15.5292 25.0011 15.7874 25.1066 16.0858 25.1066H27.1035C27.4019 25.1066 27.6601 25.0011 27.8781 24.7902C28.0962 24.5793 28.2052 24.3295 28.2052 24.0409C28.2052 23.7523 28.0962 23.5026 27.8781 23.2916C27.6601 23.0807 27.4019 22.9753 27.1035 22.9753ZM27.1035 27.2379H16.0858C15.7874 27.2379 15.5292 27.3433 15.3112 27.5542C15.0931 27.7651 14.9841 28.0149 14.9841 28.3035C14.9841 28.5921 15.0931 28.8419 15.3112 29.0528C15.5292 29.2637 15.7874 29.3691 16.0858 29.3691H27.1035C27.4019 29.3691 27.6601 29.2637 27.8781 29.0528C28.0962 28.8419 28.2052 28.5921 28.2052 28.3035C28.2052 28.0149 28.0962 27.7651 27.8781 27.5542C27.6601 27.3433 27.4019 27.2379 27.1035 27.2379ZM41.4264 17.6471C41.4264 17.3585 41.3174 17.1087 41.0993 16.8978C40.8812 16.6869 40.623 16.5814 40.3246 16.5814H33.714C33.4157 16.5814 33.1574 16.6869 32.9394 16.8978C32.7213 17.1087 32.6123 17.3585 32.6123 17.6471V24.0409C32.6123 24.3295 32.7213 24.5793 32.9394 24.7902C33.1574 25.0011 33.4157 25.1066 33.714 25.1066H40.3246C40.623 25.1066 40.8812 25.0011 41.0993 24.7902C41.3174 24.5793 41.4264 24.3295 41.4264 24.0409V17.6471Z" fill="white"/>
</svg>
