<svg xmlns="http://www.w3.org/2000/svg" width="24" height="24" viewBox="0 0 24 24">
    <g fill="none" fill-rule="evenodd">
        <path fill="#151A21" d="M0 0h24v24H0z" opacity=".01"/>
        <path fill="#ECEEF2" d="M23 5.747a1.924 1.924 0 0 0-.57-1.161A1.945 1.945 0 0 0 21 4H3.016c-.563 0-1.04.195-1.43.586-.39.39-.586.867-.586 1.43V8h22V5.747zM1 14.492v3.492c0 .563.195 1.04.586 1.43.39.39.867.586 1.43.586H21c.563 0 1.04-.195 1.43-.586.327-.327.517-.714.57-1.16V11H1v3.492z"/>
    </g>
</svg>
