<svg xmlns="http://www.w3.org/2000/svg" width="24" height="24" viewBox="0 0 24 24">
    <g fill="none" fill-rule="evenodd">
        <path fill="#151A21" d="M0 0h24v24H0z" opacity=".01"/>
        <path stroke="#8692A6" stroke-width="1.4" d="M22.3 5.793a1.225 1.225 0 0 0-.365-.712A1.247 1.247 0 0 0 21 4.7H3.016c-.378 0-.676.122-.935.38-.259.26-.381.558-.381.936V11.3h20.6V5.793z"/>
        <path stroke="#8692A6" stroke-width="1.4" d="M22.3 18.207c-.04.274-.158.505-.365.712-.259.259-.557.381-.935.381H3.016c-.378 0-.676-.122-.935-.38a1.247 1.247 0 0 1-.381-.936V8.7h20.6v9.507z"/>
    </g>
</svg>
