<svg width="24" height="24" viewBox="0 0 24 24" fill="none" xmlns="http://www.w3.org/2000/svg">
<path d="M12 23C18.0751 23 23 18.0751 23 12C23 5.92487 18.0751 1 12 1C5.92487 1 1 5.92487 1 12C1 18.0751 5.92487 23 12 23Z" stroke="#DBDAE2" stroke-width="1.6" stroke-linecap="round" stroke-linejoin="round"/>
<path d="M12 6V17" stroke="#DBDAE2" stroke-width="1.6" stroke-linecap="round" stroke-linejoin="round"/>
<path d="M14.5 8H10.75C10.2859 8 9.84075 8.18437 9.51256 8.51256C9.18437 8.84075 9 9.28587 9 9.75C9 10.2141 9.18437 10.6592 9.51256 10.9874C9.84075 11.3156 10.2859 11.5 10.75 11.5H13.25C13.7141 11.5 14.1592 11.6844 14.4874 12.0126C14.8156 12.3408 15 12.7859 15 13.25C15 13.7141 14.8156 14.1592 14.4874 14.4874C14.1592 14.8156 13.7141 15 13.25 15H9" stroke="#DBDAE2" stroke-width="1.6" stroke-linecap="round" stroke-linejoin="round"/>
</svg>
