<svg xmlns="http://www.w3.org/2000/svg" width="24" height="24" viewBox="0 0 24 24">
    <g fill="none" fill-rule="evenodd">
        <path fill="#151A21" d="M0 0h24v24H0z" opacity=".01"/>
        <path fill="#ECEEF2" stroke="#ECEEF2" stroke-width="1.6" d="M12 12c-1.11 0-2.055-.39-2.836-1.172-.781-.781-1.172-1.726-1.172-2.836 0-1.11.39-2.054 1.172-2.836.781-.781 1.727-1.172 2.836-1.172 1.11 0 2.055.391 2.836 1.172.781.782 1.172 1.727 1.172 2.836 0 1.11-.39 2.055-1.172 2.836C14.055 11.61 13.109 12 12 12zm0 2.016c.984 0 2.07.14 3.258.421 1.187.282 2.273.743 3.258 1.383.984.64 1.476 1.367 1.476 2.18v2.016H4.008V18c0-.813.492-1.54 1.476-2.18.985-.64 2.07-1.101 3.258-1.383 1.188-.28 2.274-.421 3.258-.421z"/>
    </g>
</svg>
