<?xml version="1.0" encoding="utf-8"?>
<!-- Generator: Adobe Illustrator 27.0.0, SVG Export Plug-In . SVG Version: 6.00 Build 0)  -->
<svg version="1.1" id="Layer_1" xmlns="http://www.w3.org/2000/svg" xmlns:xlink="http://www.w3.org/1999/xlink" x="0px" y="0px"
	 viewBox="0 0 59.4 59.1" style="enable-background:new 0 0 59.4 59.1;" xml:space="preserve">
<style type="text/css">
	.st0{fill:#FFFFFF;}
</style>
<g>
	<path class="st0" d="M29.7,58.5c-16,0-29-13-29-29s13-28.9,29-28.9s29,13,29,29S45.6,58.5,29.7,58.5z M29.7,4.7
		C15.9,4.7,4.8,15.8,4.8,29.6s11.1,24.9,24.9,24.9s24.9-11.2,24.9-24.9S43.4,4.7,29.7,4.7z"/>
	<g>
		<path class="st0" d="M35.2,43.7c-0.4-0.4-0.8-0.8-1.2-1.2c-1-0.9-2-1.9-3-2.8c-1.2-1.1-2.4-2.2-3.6-3.3c-1-1-2.1-1.9-3.1-2.9
			c-0.5-0.5-1-1-1.5-1.4l0,0c0.2,0.4,0.3,0.8,0.5,1.2v-1L21.6,34h2c0.7,0,1.4,0,2.1,0c1.6-0.1,3.2-0.5,4.5-1.4
			c1.3-0.8,2.4-2,3.1-3.4s1.1-3,1.1-4.6c-0.1-1.6-0.6-3.1-1.4-4.4c-0.8-1.3-2-2.4-3.4-3.1c-1.3-0.7-2.7-1-4.2-1h-4.5
			c-0.4,0-0.9,0.2-1.2,0.5c-0.3,0.3-0.5,0.8-0.5,1.2c0,0.4,0.2,0.9,0.5,1.2c0.3,0.3,0.8,0.5,1.2,0.5h4.3c0.4,0,0.8,0,1.2,0.1
			c-0.1,0-0.3,0-0.5-0.1c0.6,0.1,1.3,0.3,1.9,0.5c-0.1-0.1-0.3-0.1-0.4-0.2c0.6,0.2,1.1,0.6,1.6,1c-0.1-0.1-0.2-0.2-0.3-0.3
			c0.5,0.4,0.9,0.8,1.3,1.3c-0.1-0.1-0.2-0.2-0.3-0.4c0.4,0.5,0.7,1,1,1.6c-0.1-0.1-0.1-0.3-0.2-0.4c0.2,0.6,0.4,1.2,0.5,1.9
			c0-0.1,0-0.3-0.1-0.5c0.1,0.6,0.1,1.3,0,1.9c0-0.1,0-0.3,0.1-0.5c-0.1,0.6-0.3,1.3-0.5,1.9c0.1-0.1,0.1-0.3,0.2-0.4
			c-0.2,0.6-0.6,1.1-1,1.6c0.1-0.1,0.2-0.2,0.3-0.4c-0.4,0.5-0.8,0.9-1.3,1.3c0.1-0.1,0.2-0.2,0.3-0.3c-0.5,0.4-1,0.7-1.6,1
			c0.1-0.1,0.3-0.1,0.4-0.2c-0.6,0.2-1.2,0.4-1.9,0.5c0.1,0,0.3,0,0.5-0.1c-0.9,0.3-1.5,0.3-2.1,0.3h-2.8c-0.9,0-1.7,0.8-1.7,1.7
			c0,0.3,0,0.6,0,1c0,0.5,0.2,1,0.6,1.3c0.2,0.2,0.4,0.4,0.7,0.6c1,0.9,1.9,1.8,2.9,2.7c1.3,1.2,2.5,2.3,3.8,3.5
			c1.1,1.1,2.3,2.1,3.4,3.2c0.6,0.5,1.1,1.1,1.7,1.6l0,0c0.3,0.3,0.8,0.5,1.2,0.5s0.9-0.2,1.2-0.5s0.5-0.8,0.5-1.2
			C35.7,44.5,35.5,44,35.2,43.7L35.2,43.7L35.2,43.7z"/>
		<path class="st0" d="M20.6,19.4h15.9c0.7,0,1.5,0,2.2,0l0,0c0.4,0,0.9-0.2,1.2-0.5s0.5-0.8,0.5-1.2c0-0.4-0.2-0.9-0.5-1.2
			c-0.3-0.3-0.8-0.5-1.2-0.5H22.8c-0.7,0-1.5,0-2.2,0l0,0c-0.4,0-0.9,0.2-1.2,0.5c-0.3,0.3-0.5,0.8-0.5,1.2s0.2,0.9,0.5,1.2
			C19.7,19.2,20.1,19.4,20.6,19.4L20.6,19.4z"/>
		<path class="st0" d="M20.6,26.7h15.9c0.7,0,1.5,0,2.2,0l0,0c0.4,0,0.9-0.2,1.2-0.5s0.5-0.8,0.5-1.2c0-0.4-0.2-0.9-0.5-1.2
			c-0.3-0.3-0.8-0.5-1.2-0.5H22.8c-0.7,0-1.5,0-2.2,0l0,0c-0.4,0-0.9,0.2-1.2,0.5c-0.3,0.3-0.5,0.8-0.5,1.2c0,0.4,0.2,0.9,0.5,1.2
			C19.7,26.5,20.1,26.7,20.6,26.7L20.6,26.7z"/>
	</g>
</g>
</svg>
