<svg width="18" height="16" viewBox="0 0 18 16" fill="none" xmlns="http://www.w3.org/2000/svg">
<path d="M17.1001 12.9999H0.900214C0.641968 13 0.396088 12.877 0.225217 12.6619C0.0543586 12.4469 -0.025044 12.1605 0.00720152 11.8759C0.0168443 11.787 1.09715 2.99985 9.00008 2.99985C16.903 2.99985 17.9833 11.7867 17.993 11.8759V11.876C18.0252 12.1606 17.9458 12.4471 17.7749 12.662C17.6041 12.8772 17.3582 13.0002 17.0999 13L17.1001 12.9999ZM2.01801 10.9998H15.9819C15.6191 9.25861 14.726 7.71042 13.4536 6.61689C12.1812 5.52353 10.6079 4.95234 9.00013 4.99991C7.39217 4.95253 5.81905 5.52392 4.5467 6.61723C3.27446 7.71059 2.38112 9.25878 2.01816 10.9997L2.01801 10.9998ZM10.7999 1.0001C10.8001 0.734759 10.7053 0.480294 10.5364 0.292796C10.3676 0.105132 10.1386 -0.000166942 9.8998 1.98673e-07H8.09991C7.77839 1.98673e-07 7.48127 0.190678 7.32051 0.500051C7.15974 0.809424 7.15974 1.1906 7.32051 1.49998C7.48127 1.80935 7.77839 2.00003 8.09991 2.00003H9.89996H9.89981C10.1386 2.0002 10.3676 1.8949 10.5364 1.70724C10.7053 1.51974 10.8001 1.2653 10.7999 1.0001H10.7999ZM18 15.0001L17.9998 14.9999C18 14.7347 17.9052 14.4803 17.7365 14.2928C17.5676 14.1051 17.3387 13.9998 17.0999 14H0.899982C0.578456 14 0.281338 14.1906 0.120574 14.5C-0.0401912 14.8094 -0.0401912 15.1906 0.120574 15.4999C0.281338 15.8093 0.578452 16 0.899982 16H17.0999C17.3387 16.0002 17.5676 15.8949 17.7365 15.7072C17.9052 15.5197 18 15.2653 17.9998 14.9999L18 15.0001Z" fill="white"/>
</svg>
