<svg xmlns="http://www.w3.org/2000/svg" width="24" height="24" viewBox="0 0 24 24">
    <g fill="none" fill-rule="evenodd">
        <path fill="#151A21" d="M0 0h24v24H0z" opacity=".01"/>
        <path fill="#ECEEF2" d="M3 21.984V2.016l1.5 1.5 1.5-1.5 1.5 1.5 1.5-1.5 1.5 1.5 1.5-1.5 1.5 1.5 1.5-1.5 1.5 1.5 1.5-1.5 1.5 1.5 1.5-1.5v19.968l-1.5-1.5-1.5 1.5-1.5-1.5-1.5 1.5-1.5-1.5-1.5 1.5-1.5-1.5-1.5 1.5-1.5-1.5-1.5 1.5-1.5-1.5-1.5 1.5zM17 16v-1.4H7V16h10zm0-3.584v-1.4H7v1.4h10zm0-3.636v-1.4H7v1.4h10z"/>
    </g>
</svg>
