<svg xmlns="http://www.w3.org/2000/svg" width="24" height="24" viewBox="0 0 24 24">
    <g fill="none" fill-rule="evenodd">
        <path fill="#151A21" d="M0 0h24v24H0z" opacity=".01"/>
        <path stroke="#8692A6" stroke-width="1.4" d="M3.7 20.294l.8-.8 1.5 1.5 1.5-1.5 1.5 1.5 1.5-1.5 1.5 1.5 1.5-1.5 1.5 1.5 1.5-1.5 1.5 1.5 1.5-1.5.8.8V3.706l-.8.8-1.5-1.5-1.5 1.5-1.5-1.5-1.5 1.5-1.5-1.5-1.5 1.5-1.5-1.5-1.5 1.5-1.5-1.5-1.5 1.5-.8-.8v16.588z"/>
        <path fill="#8692A6" d="M17 16v-1.4H7V16zM17 12.416v-1.4H7v1.4zM17 8.78v-1.4H7v1.4z"/>
    </g>
</svg>
