<svg width="22" height="21" viewBox="0 0 22 21" fill="none" xmlns="http://www.w3.org/2000/svg">
<path d="M19.7364 10.4999C19.7364 10.9291 19.7077 11.3583 19.6505 11.7852C19.6615 11.7082 19.6725 11.629 19.6813 11.5519C19.5669 12.3971 19.3424 13.2246 19.0101 14.0104C19.0387 13.9399 19.0695 13.8695 19.0981 13.7991C18.7768 14.5584 18.3586 15.2715 17.8568 15.9252C17.903 15.8657 17.9492 15.8063 17.9954 15.7469C17.4892 16.4028 16.8994 16.9904 16.2457 17.4966C16.3051 17.4504 16.3646 17.4042 16.424 17.3579C15.7703 17.8598 15.0572 18.2779 14.2979 18.5993C14.3683 18.5707 14.4388 18.5398 14.5092 18.5112C13.7235 18.8414 12.8959 19.0681 12.0508 19.1825C12.1278 19.1715 12.207 19.1605 12.2841 19.1517C11.4323 19.2639 10.5674 19.2639 9.71341 19.1517C9.79044 19.1627 9.86968 19.1737 9.94671 19.1825C9.10156 19.0681 8.27402 18.8436 7.48829 18.5112C7.55872 18.5398 7.62915 18.5707 7.69958 18.5993C6.94027 18.2779 6.22717 17.8598 5.5735 17.3579C5.63293 17.4042 5.69235 17.4504 5.75177 17.4966C5.0959 16.9904 4.50826 16.4006 4.00205 15.7469C4.04827 15.8063 4.09449 15.8657 4.14071 15.9252C3.6389 15.2715 3.22073 14.5584 2.8994 13.7991C2.92801 13.8695 2.95882 13.9399 2.98743 14.0104C2.6573 13.2246 2.4306 12.3971 2.31615 11.5519C2.32716 11.629 2.33816 11.7082 2.34697 11.7852C2.23472 10.9335 2.23472 10.0685 2.34697 9.21458C2.33596 9.29161 2.32496 9.37085 2.31615 9.44788C2.4306 8.60273 2.65509 7.77519 2.98743 6.98946C2.95882 7.05989 2.92801 7.13032 2.8994 7.20075C3.22073 6.44144 3.6389 5.72834 4.14071 5.07467C4.09449 5.1341 4.04827 5.19352 4.00205 5.25294C4.50826 4.59707 5.0981 4.00943 5.75177 3.50322C5.69235 3.54944 5.63293 3.59566 5.5735 3.64188C6.22717 3.14007 6.94027 2.7219 7.69958 2.40057C7.62915 2.42918 7.55872 2.45999 7.48829 2.4886C8.27402 2.15847 9.10156 1.93177 9.94671 1.81732C9.86968 1.82833 9.79044 1.83933 9.71341 1.84814C10.5652 1.73589 11.4301 1.73589 12.2841 1.84814C12.207 1.83713 12.1278 1.82613 12.0508 1.81732C12.8959 1.93177 13.7235 2.15626 14.5092 2.4886C14.4388 2.45999 14.3683 2.42918 14.2979 2.40057C15.0572 2.7219 15.7703 3.14007 16.424 3.64188C16.3646 3.59566 16.3051 3.54944 16.2457 3.50322C16.9016 4.00943 17.4892 4.59927 17.9954 5.25294C17.9492 5.19352 17.903 5.1341 17.8568 5.07467C18.3586 5.72834 18.7768 6.44144 19.0981 7.20075C19.0695 7.13032 19.0387 7.05989 19.0101 6.98946C19.3402 7.77519 19.5669 8.60273 19.6813 9.44788C19.6703 9.37085 19.6593 9.29161 19.6505 9.21458C19.7077 9.64156 19.7364 10.0707 19.7364 10.4999C19.7364 10.9599 20.1413 11.4023 20.6167 11.3803C21.0921 11.3583 21.4971 10.9929 21.4971 10.4999C21.4949 9.41927 21.332 8.32321 20.9975 7.29319C20.6739 6.29397 20.2051 5.33218 19.5933 4.47602C19.2742 4.02704 18.9264 3.59566 18.5435 3.1995C18.1583 2.80113 17.7401 2.44678 17.3021 2.11005C16.468 1.47178 15.5392 0.98318 14.5554 0.620029C13.5452 0.248076 12.4645 0.0499938 11.3883 0.00817654C10.2967 -0.0358417 9.18519 0.0984139 8.13316 0.397738C7.12734 0.683856 6.15014 1.12404 5.27418 1.70068C4.40922 2.27071 3.61469 2.9596 2.95442 3.76073C2.60007 4.18991 2.26993 4.64109 1.98382 5.11869C1.6955 5.59849 1.46 6.10029 1.24871 6.61751C0.839343 7.61232 0.61265 8.67316 0.529015 9.745C0.445381 10.8345 0.544422 11.9459 0.801928 13.009C1.05063 14.0324 1.4666 15.0316 2.01243 15.9318C2.54945 16.8143 3.22073 17.6331 3.99545 18.3197C4.77457 19.0108 5.64833 19.6007 6.59692 20.0299C7.10974 20.2609 7.63355 20.4634 8.17498 20.6153C8.72961 20.7694 9.29304 20.8662 9.86527 20.9344C10.9613 21.0643 12.0772 20.9961 13.1578 20.776C14.1901 20.5669 15.1981 20.1817 16.1181 19.6689C17.0204 19.1649 17.8612 18.5156 18.5743 17.7695C19.294 17.0168 19.9146 16.1518 20.379 15.2187C20.8522 14.2679 21.1956 13.2511 21.3562 12.199C21.4421 11.6356 21.4971 11.0699 21.4993 10.4999C21.4993 10.0399 21.0943 9.59754 20.6189 9.61955C20.1391 9.64156 19.7364 10.0069 19.7364 10.4999Z" fill="#ECEEF2"/>
<path d="M10.1167 16.0103C10.1167 16.0697 10.1167 16.1269 10.1167 16.1863C10.1123 16.3074 10.1365 16.4196 10.1915 16.5253C10.2268 16.6353 10.2884 16.73 10.3742 16.8092C10.4535 16.895 10.5481 16.9567 10.6581 16.9919C10.7638 17.0469 10.876 17.0733 10.9971 17.0667C11.0741 17.0557 11.1533 17.0447 11.2304 17.0359C11.38 16.9941 11.5099 16.9192 11.6199 16.8092C11.6662 16.7498 11.7124 16.6903 11.7586 16.6309C11.8378 16.4945 11.8774 16.3448 11.8796 16.1863C11.8796 16.1269 11.8796 16.0697 11.8796 16.0103C11.884 15.8892 11.8598 15.777 11.8048 15.6713C11.7696 15.5613 11.708 15.4666 11.6221 15.3874C11.5429 15.3016 11.4483 15.2399 11.3382 15.2047C11.2326 15.1497 11.1203 15.1233 10.9993 15.1299C10.9223 15.1409 10.843 15.1519 10.766 15.1607C10.6163 15.2025 10.4865 15.2774 10.3764 15.3874C10.3302 15.4468 10.284 15.5063 10.2378 15.5657C10.1563 15.7043 10.1167 15.8518 10.1167 16.0103Z" fill="#ECEEF2"/>
<path d="M8.64428 8.04506C8.64428 7.90201 8.65308 7.76115 8.67289 7.61809C8.66188 7.69512 8.65088 7.77435 8.64208 7.85138C8.68169 7.56747 8.75652 7.29015 8.86657 7.02604C8.83796 7.09647 8.80715 7.1669 8.77853 7.23733C8.88858 6.97982 9.02944 6.73772 9.19891 6.51543C9.15269 6.57486 9.10647 6.63428 9.06025 6.69371C9.23192 6.47362 9.4278 6.27773 9.64789 6.10606C9.58847 6.15228 9.52904 6.1985 9.46962 6.24472C9.69191 6.07525 9.93401 5.93439 10.1915 5.82435C10.1211 5.85296 10.0507 5.88377 9.98023 5.91238C10.2443 5.80234 10.5217 5.72751 10.8056 5.68789C10.7285 5.69889 10.6493 5.7099 10.5723 5.7187C10.8562 5.68349 11.1423 5.68349 11.4262 5.7187C11.3492 5.7077 11.27 5.69669 11.1929 5.68789C11.4768 5.72751 11.7542 5.80014 12.0205 5.91018C11.95 5.88157 11.8796 5.85076 11.8092 5.82215C12.0667 5.93219 12.3088 6.07305 12.5311 6.24252C12.4717 6.1963 12.4122 6.15008 12.3528 6.10386C12.5729 6.27553 12.7688 6.47141 12.9405 6.69151C12.8942 6.63208 12.848 6.57266 12.8018 6.51323C12.9713 6.73552 13.1121 6.97762 13.2222 7.23513C13.1936 7.1647 13.1627 7.09427 13.1341 7.02384C13.2442 7.29015 13.319 7.56527 13.3564 7.85138C13.3454 7.77435 13.3344 7.69512 13.3256 7.61809C13.3608 7.90201 13.3608 8.18812 13.3256 8.46984C13.3366 8.39281 13.3476 8.31358 13.3564 8.23654C13.3168 8.52046 13.242 8.79778 13.1319 9.06409C13.1605 8.99366 13.1914 8.92323 13.22 8.8528C13.1099 9.11031 12.9691 9.35241 12.7974 9.5769C12.8436 9.51747 12.8898 9.45805 12.9361 9.39862C12.7644 9.61872 12.5685 9.8146 12.3484 9.98627C12.4078 9.94005 12.4673 9.89383 12.5267 9.84761C12.2912 10.0259 12.0403 10.1579 11.774 10.2834C11.4548 10.4331 11.1533 10.6619 10.9156 10.9217C10.4072 11.4829 10.1189 12.1982 10.1167 12.9575C10.1167 13.1248 10.1167 13.2898 10.1167 13.4571C10.1167 13.9171 10.5217 14.3595 10.997 14.3375C11.4746 14.3155 11.8774 13.9501 11.8774 13.4571C11.8774 13.1908 11.862 12.9179 11.8972 12.6538C11.8862 12.7308 11.8752 12.81 11.8664 12.8871C11.8928 12.711 11.939 12.5415 12.0073 12.3765C11.9787 12.4469 11.9478 12.5173 11.9192 12.5877C11.9919 12.4161 12.0865 12.2576 12.2009 12.1079C12.1547 12.1674 12.1085 12.2268 12.0623 12.2862C12.1723 12.1476 12.2978 12.0243 12.4364 11.9143C12.377 11.9605 12.3176 12.0067 12.2582 12.0529C12.4717 11.8901 12.7116 11.7954 12.9471 11.6722C13.2244 11.5269 13.4775 11.3376 13.7152 11.1351C14.1444 10.7698 14.5053 10.2878 14.7298 9.77278C14.9895 9.17853 15.1414 8.54687 15.1106 7.8932C15.0819 7.26594 14.9213 6.6695 14.633 6.11267C14.1135 5.11125 13.1319 4.34534 12.0425 4.06362C10.9112 3.7731 9.63029 3.96898 8.67289 4.65566C8.14467 5.03422 7.68688 5.50962 7.38096 6.08846C7.05962 6.69371 6.88795 7.36278 6.88575 8.04727C6.88355 8.50726 7.29292 8.94964 7.76611 8.92763C8.24371 8.90562 8.64208 8.54027 8.64428 8.04506Z" fill="#ECEEF2"/>
</svg>
