<svg width="21" height="21" viewBox="0 0 21 21" fill="none" xmlns="http://www.w3.org/2000/svg">
<path d="M19.2364 10.4999C19.2364 10.9291 19.2077 11.3583 19.1505 11.7852C19.1615 11.7082 19.1725 11.629 19.1813 11.5519C19.0669 12.3971 18.8424 13.2246 18.5101 14.0104C18.5387 13.9399 18.5695 13.8695 18.5981 13.7991C18.2768 14.5584 17.8586 15.2715 17.3568 15.9252C17.403 15.8657 17.4492 15.8063 17.4954 15.7469C16.9892 16.4028 16.3994 16.9904 15.7457 17.4966C15.8051 17.4504 15.8646 17.4042 15.924 17.3579C15.2703 17.8598 14.5572 18.2779 13.7979 18.5993C13.8683 18.5706 13.9388 18.5398 14.0092 18.5112C13.2235 18.8414 12.3959 19.0681 11.5508 19.1825C11.6278 19.1715 11.707 19.1605 11.7841 19.1517C10.9323 19.2639 10.0674 19.2639 9.21341 19.1517C9.29044 19.1627 9.36968 19.1737 9.44671 19.1825C8.60156 19.0681 7.77402 18.8436 6.98829 18.5112C7.05872 18.5398 7.12915 18.5706 7.19958 18.5993C6.44027 18.2779 5.72717 17.8598 5.0735 17.3579C5.13293 17.4042 5.19235 17.4504 5.25177 17.4966C4.5959 16.9904 4.00826 16.4006 3.50205 15.7469C3.54827 15.8063 3.59449 15.8657 3.64071 15.9252C3.1389 15.2715 2.72073 14.5584 2.3994 13.7991C2.42801 13.8695 2.45882 13.9399 2.48743 14.0104C2.1573 13.2246 1.9306 12.3971 1.81615 11.5519C1.82716 11.629 1.83816 11.7082 1.84697 11.7852C1.73472 10.9335 1.73472 10.0685 1.84697 9.21458C1.83596 9.29161 1.82496 9.37085 1.81615 9.44788C1.9306 8.60273 2.15509 7.77519 2.48743 6.98946C2.45882 7.05989 2.42801 7.13032 2.3994 7.20075C2.72073 6.44144 3.1389 5.72834 3.64071 5.07467C3.59449 5.1341 3.54827 5.19352 3.50205 5.25294C4.00826 4.59707 4.5981 4.00943 5.25177 3.50322C5.19235 3.54944 5.13293 3.59566 5.0735 3.64188C5.72717 3.14007 6.44027 2.7219 7.19958 2.40057C7.12915 2.42918 7.05872 2.45999 6.98829 2.4886C7.77402 2.15847 8.60156 1.93177 9.44671 1.81732C9.36968 1.82833 9.29044 1.83933 9.21341 1.84814C10.0652 1.73589 10.9301 1.73589 11.7841 1.84814C11.707 1.83713 11.6278 1.82613 11.5508 1.81732C12.3959 1.93177 13.2235 2.15626 14.0092 2.4886C13.9388 2.45999 13.8683 2.42918 13.7979 2.40057C14.5572 2.7219 15.2703 3.14007 15.924 3.64188C15.8646 3.59566 15.8051 3.54944 15.7457 3.50322C16.4016 4.00943 16.9892 4.59927 17.4954 5.25294C17.4492 5.19352 17.403 5.1341 17.3568 5.07467C17.8586 5.72834 18.2768 6.44144 18.5981 7.20075C18.5695 7.13032 18.5387 7.05989 18.5101 6.98946C18.8402 7.77519 19.0669 8.60273 19.1813 9.44788C19.1703 9.37085 19.1593 9.29161 19.1505 9.21458C19.2077 9.64156 19.2364 10.0707 19.2364 10.4999C19.2364 10.9599 19.6413 11.4023 20.1167 11.3803C20.5921 11.3583 20.9971 10.9929 20.9971 10.4999C20.9949 9.41927 20.832 8.32321 20.4975 7.29319C20.1739 6.29397 19.7051 5.33218 19.0933 4.47602C18.7742 4.02704 18.4264 3.59566 18.0435 3.1995C17.6583 2.80113 17.2401 2.44678 16.8021 2.11005C15.968 1.47178 15.0392 0.98318 14.0554 0.620029C13.0452 0.248076 11.9645 0.0499938 10.8883 0.00817654C9.79665 -0.0358417 8.68519 0.0984139 7.63316 0.397738C6.62734 0.683856 5.65014 1.12404 4.77418 1.70068C3.90922 2.27071 3.11469 2.9596 2.45442 3.76073C2.10007 4.1899 1.76993 4.64109 1.48382 5.11869C1.1955 5.59849 0.96 6.10029 0.748713 6.61751C0.339343 7.61232 0.11265 8.67316 0.0290151 9.745C-0.0546195 10.8345 0.0444215 11.9459 0.301928 13.009C0.550631 14.0324 0.966603 15.0316 1.51243 15.9318C2.04945 16.8143 2.72073 17.6331 3.49545 18.3197C4.27457 19.0108 5.14833 19.6007 6.09692 20.0299C6.60974 20.2609 7.13355 20.4634 7.67498 20.6153C8.22961 20.7694 8.79304 20.8662 9.36527 20.9344C10.4613 21.0643 11.5772 20.9961 12.6578 20.776C13.6901 20.5669 14.6981 20.1817 15.6181 19.6689C16.5204 19.1649 17.3612 18.5156 18.0743 17.7695C18.794 17.0168 19.4146 16.1519 19.879 15.2187C20.3522 14.2679 20.6956 13.2511 20.8562 12.199C20.9421 11.6356 20.9971 11.0699 20.9993 10.4999C20.9993 10.0399 20.5943 9.59754 20.1189 9.61955C19.6391 9.64156 19.2364 10.0069 19.2364 10.4999Z" fill="#2196F3"/>
<path d="M9.61672 16.0103C9.61672 16.0697 9.61672 16.1269 9.61672 16.1863C9.61232 16.3074 9.63653 16.4196 9.69155 16.5253C9.72676 16.6353 9.78839 16.73 9.87422 16.8092C9.95346 16.895 10.0481 16.9567 10.1581 16.9919C10.2638 17.0469 10.376 17.0733 10.4971 17.0667C10.5741 17.0557 10.6533 17.0447 10.7304 17.0359C10.88 16.9941 11.0099 16.9192 11.1199 16.8092C11.1662 16.7498 11.2124 16.6903 11.2586 16.6309C11.3378 16.4945 11.3774 16.3448 11.3796 16.1863C11.3796 16.1269 11.3796 16.0697 11.3796 16.0103C11.384 15.8892 11.3598 15.777 11.3048 15.6713C11.2696 15.5613 11.208 15.4666 11.1221 15.3874C11.0429 15.3016 10.9483 15.2399 10.8382 15.2047C10.7326 15.1497 10.6203 15.1233 10.4993 15.1299C10.4223 15.1409 10.343 15.1519 10.266 15.1607C10.1163 15.2025 9.98647 15.2774 9.87642 15.3874C9.83021 15.4468 9.78399 15.5063 9.73777 15.5657C9.65633 15.7043 9.61672 15.8518 9.61672 16.0103Z" fill="#2196F3"/>
<path d="M8.14428 8.04506C8.14428 7.90201 8.15308 7.76115 8.17289 7.61809C8.16188 7.69512 8.15088 7.77435 8.14208 7.85138C8.18169 7.56747 8.25652 7.29015 8.36657 7.02604C8.33796 7.09647 8.30715 7.1669 8.27853 7.23733C8.38858 6.97982 8.52944 6.73772 8.69891 6.51543C8.65269 6.57486 8.60647 6.63428 8.56025 6.69371C8.73192 6.47362 8.9278 6.27773 9.14789 6.10606C9.08847 6.15228 9.02904 6.1985 8.96962 6.24472C9.19191 6.07525 9.43401 5.93439 9.69152 5.82435C9.62109 5.85296 9.55066 5.88377 9.48023 5.91238C9.74434 5.80234 10.0217 5.72751 10.3056 5.68789C10.2285 5.69889 10.1493 5.7099 10.0723 5.7187C10.3562 5.68349 10.6423 5.68349 10.9262 5.7187C10.8492 5.7077 10.77 5.69669 10.6929 5.68789C10.9768 5.72751 11.2542 5.80014 11.5205 5.91018C11.45 5.88157 11.3796 5.85076 11.3092 5.82215C11.5667 5.93219 11.8088 6.07305 12.0311 6.24252C11.9717 6.1963 11.9122 6.15008 11.8528 6.10386C12.0729 6.27553 12.2688 6.47141 12.4405 6.69151C12.3942 6.63208 12.348 6.57266 12.3018 6.51323C12.4713 6.73552 12.6121 6.97762 12.7222 7.23513C12.6936 7.1647 12.6627 7.09427 12.6341 7.02384C12.7442 7.29015 12.819 7.56527 12.8564 7.85138C12.8454 7.77435 12.8344 7.69512 12.8256 7.61809C12.8608 7.90201 12.8608 8.18812 12.8256 8.46984C12.8366 8.39281 12.8476 8.31358 12.8564 8.23654C12.8168 8.52046 12.742 8.79778 12.6319 9.06409C12.6605 8.99366 12.6914 8.92323 12.72 8.8528C12.6099 9.11031 12.4691 9.35241 12.2974 9.5769C12.3436 9.51747 12.3898 9.45805 12.4361 9.39862C12.2644 9.61872 12.0685 9.8146 11.8484 9.98627C11.9078 9.94005 11.9673 9.89383 12.0267 9.84761C11.7912 10.0259 11.5403 10.1579 11.274 10.2834C10.9548 10.4331 10.6533 10.6619 10.4156 10.9217C9.90721 11.4829 9.61889 12.1982 9.61669 12.9575C9.61669 13.1248 9.61669 13.2898 9.61669 13.4571C9.61669 13.9171 10.0217 14.3595 10.497 14.3375C10.9746 14.3155 11.3774 13.9501 11.3774 13.4571C11.3774 13.1908 11.362 12.9179 11.3972 12.6538C11.3862 12.7308 11.3752 12.81 11.3664 12.8871C11.3928 12.711 11.439 12.5415 11.5073 12.3765C11.4787 12.4469 11.4478 12.5173 11.4192 12.5877C11.4919 12.4161 11.5865 12.2576 11.7009 12.1079C11.6547 12.1674 11.6085 12.2268 11.5623 12.2862C11.6723 12.1476 11.7978 12.0243 11.9364 11.9143C11.877 11.9605 11.8176 12.0067 11.7582 12.0529C11.9717 11.8901 12.2116 11.7954 12.4471 11.6722C12.7244 11.5269 12.9775 11.3376 13.2152 11.1351C13.6444 10.7698 14.0053 10.2878 14.2298 9.77278C14.4895 9.17853 14.6414 8.54687 14.6106 7.8932C14.5819 7.26594 14.4213 6.6695 14.133 6.11267C13.6135 5.11125 12.6319 4.34534 11.5425 4.06362C10.4112 3.7731 9.13029 3.96898 8.17289 4.65566C7.64467 5.03422 7.18688 5.50962 6.88096 6.08846C6.55962 6.69371 6.38795 7.36278 6.38575 8.04727C6.38355 8.50726 6.79292 8.94964 7.26611 8.92763C7.74371 8.90562 8.14208 8.54027 8.14428 8.04506Z" fill="#2196F3"/>
</svg>
