<svg width="20" height="16" viewBox="0 0 20 16" fill="none" xmlns="http://www.w3.org/2000/svg">
<path d="M10.0213 3.35803C9.45274 3.35803 8.89837 3.46337 8.35821 3.67407L6.39659 1.85679C7.56219 1.46173 8.75622 1.2642 9.97868 1.2642C12.2246 1.2642 14.2573 1.85021 16.0768 3.02222C17.8962 4.19424 19.204 5.71523 20 7.58519C19.3461 9.16543 18.3085 10.4955 16.887 11.5753L14.2431 9.12593C14.4421 8.62551 14.5416 8.11193 14.5416 7.58519C14.5416 6.42634 14.1009 5.4321 13.2196 4.60247C12.3383 3.77284 11.2722 3.35803 10.0213 3.35803ZM0.895522 1.06667L2.04691 0L18.209 14.9333L17.0576 16L14.371 13.5506L13.9872 13.1951C12.7079 13.6691 11.3859 13.9062 10.0213 13.9062C7.77541 13.9062 5.74272 13.3202 3.92324 12.1481C2.10377 10.9761 0.79602 9.45514 0 7.58519C0.710732 5.89959 1.8479 4.5037 3.41151 3.39753L2.98507 3.00247L0.895522 1.06667ZM5.92751 5.7284C5.61478 6.33416 5.45842 6.95309 5.45842 7.58519C5.45842 8.74403 5.90618 9.73827 6.80171 10.5679C7.69723 11.3975 8.77043 11.8123 10.0213 11.8123C10.7036 11.8123 11.3717 11.6543 12.0256 11.3383L10.6183 10.0346C10.3909 10.0872 10.1919 10.1136 10.0213 10.1136C9.25373 10.1136 8.60696 9.86996 8.08102 9.38272C7.55508 8.89547 7.29211 8.2963 7.29211 7.58519C7.29211 7.40082 7.30632 7.21646 7.33475 7.0321L5.92751 5.7284ZM9.85075 5.05679H10.0213C10.7605 5.05679 11.4001 5.307 11.9403 5.80741C12.4805 6.30782 12.7505 6.90041 12.7505 7.58519L12.7079 7.74321L9.85075 5.05679Z" fill="#A0A0A0"/>
</svg>
