<svg xmlns="http://www.w3.org/2000/svg" viewBox="0 0 265.53 263.58"><defs><style>.cls-1{fill:#fff;}</style></defs><g id="Layer_2" data-name="Layer 2"><path class="cls-1" d="M132.38,7.82a125,125,0,1,0,125,125.05A125.2,125.2,0,0,0,132.38,7.82ZM21.5,132.87a110.88,110.88,0,1,1,195.74,71.26C205.82,189.53,177.19,160,132.38,160s-73.45,29.53-84.87,44.13A110.31,110.31,0,0,1,21.5,132.87ZM132.38,243.74a110.54,110.54,0,0,1-76-30.24c9.13-12,35.36-40.83,76-40.83s66.89,28.86,76,40.83A110.51,110.51,0,0,1,132.38,243.74Z"/><path class="cls-1" d="M132.38,60.41a41.48,41.48,0,1,0,41.47,41.47A41.52,41.52,0,0,0,132.38,60.41Zm0,70.56a29.09,29.09,0,1,1,29.09-29.09A29.12,29.12,0,0,1,132.38,131Z"/></g></svg>