<svg xmlns="http://www.w3.org/2000/svg" viewBox="0 0 257.36 263.58"><defs><style>.cls-1{fill:#fff;}</style></defs><g id="Layer_2" data-name="Layer 2"><path class="cls-1" d="M188.43,136.78l-39,40.14c-6.74,6.94-17.33-3.68-10.61-10.61L164.41,140h-81c-9.67,0-9.65-15,0-15h82.32c.23,0,.46,0,.68,0q-12.78-13.18-25.58-26.36c-6.73-6.93,3.88-17.55,10.61-10.61l37,38.12A7.64,7.64,0,0,1,188.43,136.78Z"/><path class="cls-1" d="M250.78,173a125.12,125.12,0,0,1-215,39C12,183,2.46,144.89,9.77,107.35a123.71,123.71,0,0,1,98.8-97.73c30.7-5.67,60.83-.49,87.13,15a125.63,125.63,0,0,1,54.22,65,6.66,6.66,0,0,1-.82,6.18,6.8,6.8,0,0,1-5.57,2.91,10,10,0,0,1-9.24-6.22A109.49,109.49,0,0,0,49,61.64a110.17,110.17,0,0,0-24.52,89.3,108.52,108.52,0,0,0,86.68,89,113.81,113.81,0,0,0,21,2A109.35,109.35,0,0,0,235.34,169.8a8.77,8.77,0,0,1,3.17-4.17,8.57,8.57,0,0,1,4.94-1.58h.89a6.8,6.8,0,0,1,6.44,9Z"/></g></svg>