<svg width="21" height="25" viewBox="0 0 21 25" fill="none" xmlns="http://www.w3.org/2000/svg">
<path fill-rule="evenodd" clip-rule="evenodd" d="M17.5 10.7143C18.4283 10.7143 19.3185 11.0906 19.9749 11.7603C20.6313 12.4301 21 13.3385 21 14.2857V21.4286C21 22.3758 20.6313 23.2842 19.9749 23.954C19.3185 24.6237 18.4283 25 17.5 25H3.5C2.57174 25 1.6815 24.6237 1.02513 23.954C0.368749 23.2842 0 22.3758 0 21.4286V14.2857C0 13.3385 0.368749 12.4301 1.02513 11.7603C1.6815 11.0906 2.57174 10.7143 3.5 10.7143V7.14286C3.5 5.24845 4.2375 3.43164 5.55025 2.09209C6.86301 0.752549 8.64348 0 10.5 0C12.3565 0 14.137 0.752549 15.4497 2.09209C16.7625 3.43164 17.5 5.24845 17.5 7.14286V10.7143ZM10.5 2.38095C11.7377 2.38095 12.9247 2.88265 13.7998 3.77568C14.675 4.66871 15.1667 5.87992 15.1667 7.14286V10.7143H5.83333V7.14286C5.83333 5.87992 6.325 4.66871 7.20017 3.77568C8.07534 2.88265 9.26232 2.38095 10.5 2.38095ZM17.5 13.0952H3.5C3.19058 13.0952 2.89383 13.2207 2.67504 13.4439C2.45625 13.6672 2.33333 13.97 2.33333 14.2857V21.4286C2.33333 21.7443 2.45625 22.0471 2.67504 22.2704C2.89383 22.4936 3.19058 22.619 3.5 22.619H17.5C17.8094 22.619 18.1062 22.4936 18.325 22.2704C18.5438 22.0471 18.6667 21.7443 18.6667 21.4286V14.2857C18.6667 13.97 18.5438 13.6672 18.325 13.4439C18.1062 13.2207 17.8094 13.0952 17.5 13.0952Z" fill="black"/>
</svg>
