<svg width="45" height="45" viewBox="0 0 45 45" fill="none" xmlns="http://www.w3.org/2000/svg">
<path d="M29.3254 21.1481H14.5275C12.7921 21.1481 12.7885 23.8455 14.5275 23.8455H29.3307C31.0661 23.8455 31.0679 21.1481 29.3307 21.1481H29.3254Z" fill="#F26E63"/>
<path d="M24.8479 16.4133L31.5015 23.2683V21.3603L24.4882 28.5786C23.2852 29.8247 25.1913 31.7399 26.3962 30.4811L33.4094 23.2629C33.6574 23.0072 33.796 22.6651 33.796 22.3089C33.796 21.9528 33.6574 21.6106 33.4094 21.3549L26.7558 14.5054C25.5438 13.2592 23.6377 15.1671 24.8479 16.4133Z" fill="#F26E63"/>
<path d="M44.6214 29.7832C43.3251 33.5725 41.0407 36.9472 38.0043 39.5587C34.9679 42.1702 31.2894 43.9239 27.3488 44.6387C23.4081 45.3535 19.3481 45.0036 15.5878 43.6249C11.8276 42.2463 8.50354 39.889 5.95881 36.7964C1.67355 31.5832 -0.0383993 24.7265 1.28153 17.9758C2.14241 13.604 4.29625 9.59154 7.46401 6.45808C10.6318 3.32462 14.6675 1.21461 19.0484 0.401373C24.569 -0.618242 29.9872 0.313258 34.7166 3.09877C39.2209 5.74985 42.6667 9.88069 44.4668 14.7875C44.5347 14.9707 44.5568 15.1677 44.5311 15.3615C44.5054 15.5552 44.4327 15.7396 44.3193 15.8988C44.2068 16.0602 44.057 16.192 43.8826 16.2831C43.7082 16.3742 43.5144 16.4219 43.3177 16.4221C42.961 16.4214 42.6126 16.3148 42.3168 16.1156C42.0209 15.9164 41.7909 15.6338 41.6561 15.3036C40.411 12.1367 38.3663 9.34653 35.7215 7.2053C33.0768 5.06407 29.9222 3.64485 26.5655 3.08607C23.2088 2.52728 19.7646 2.84801 16.5688 4.01696C13.3729 5.18592 10.5347 7.16319 8.33071 9.75593C6.47367 11.9519 5.117 14.5259 4.35494 17.299C3.59288 20.0721 3.4437 22.9778 3.91778 25.8144C4.56516 29.7569 6.40705 33.4057 9.19461 36.2679C11.9822 39.1301 15.5811 41.0677 19.5051 41.819C20.75 42.0555 22.0143 42.1759 23.2815 42.1786C27.3351 42.1939 31.2944 40.956 34.6175 38.6345C37.9405 36.3129 40.4648 33.021 41.8449 29.2095C41.9541 28.9073 42.153 28.6457 42.415 28.4597C42.6746 28.2755 42.985 28.1762 43.3033 28.1755H43.4634C43.658 28.1754 43.8499 28.2217 44.023 28.3106C44.1962 28.3995 44.3456 28.5285 44.4588 28.6868C44.5721 28.8451 44.646 29.0281 44.6742 29.2207C44.7025 29.4133 44.6844 29.6098 44.6214 29.794V29.7832Z" fill="#F26E63"/>
</svg>
