<svg width="46" height="46" viewBox="0 0 46 46" fill="none" xmlns="http://www.w3.org/2000/svg">
<path d="M22.9417 45.0798H22.9419C28.8114 45.0727 34.4384 42.7378 38.5886 38.5873C42.7388 34.4368 45.0732 28.8096 45.0799 22.9402V22.9399C45.0799 18.561 43.7813 14.2804 41.3485 10.6395C38.9156 6.99853 35.4577 4.16081 31.4121 2.48514C27.3665 0.809474 22.9148 0.371134 18.62 1.22555C14.3252 2.07997 10.3803 4.18877 7.28401 7.28527C4.18776 10.3818 2.07928 14.3269 1.2252 18.6217C0.371132 22.9166 0.809832 27.3682 2.48582 31.4137C4.16182 35.4593 6.99982 38.9169 10.641 41.3495C14.2821 43.782 18.5628 45.0802 22.9417 45.0798ZM12.012 6.5845C15.2473 4.42308 19.0508 3.2696 22.9417 3.26995C28.1566 3.27604 33.1562 5.35036 36.8437 9.03789C40.5313 12.7255 42.6057 17.7251 42.6117 22.9402C42.612 26.8309 41.4585 30.6344 39.2971 33.8696C37.1357 37.1049 34.0634 39.6266 30.4688 41.1157C26.8742 42.6048 22.9187 42.9945 19.1026 42.2356C15.2865 41.4766 11.7811 39.603 9.0299 36.8517C6.27865 34.1005 4.40506 30.5951 3.64608 26.779C2.88709 22.9629 3.27681 19.0075 4.76593 15.4128C6.25506 11.8182 8.77671 8.74593 12.012 6.5845Z" fill="#F26E63" stroke="#F26E63" stroke-width="0.4"/>
<path d="M8.64451 38.1322L8.80746 38.2308L8.91389 38.0729C8.915 38.0712 8.91775 38.0669 8.92211 38.0601C9.1572 37.6927 14.1016 29.9664 22.9151 29.9664C27.4 29.9664 30.8904 31.9646 33.2719 33.982C35.6521 35.9983 36.9125 38.024 36.9335 38.0578L36.9335 38.0579L37.0375 38.225L37.2062 38.1237L38.9785 37.0604L39.148 36.9586L39.0482 36.7879C38.9306 36.5868 37.4991 34.271 34.8015 32.0031C32.1023 29.734 28.1258 27.5053 22.9257 27.5053C17.7256 27.5053 13.7508 29.734 11.0526 32.0032C8.35542 34.2713 6.92438 36.5872 6.80462 36.7855L6.70134 36.9566L6.8723 37.06L8.64451 38.1322Z" fill="#F26E63" stroke="#F26E63" stroke-width="0.4"/>
<path d="M22.9257 26.1988L22.9261 26.1988C24.9481 26.195 26.8863 25.39 28.3161 23.9602C29.7459 22.5303 30.5509 20.5922 30.5548 18.5701V18.5697C30.5548 17.0608 30.1073 15.5858 29.269 14.3312C28.4307 13.0766 27.2392 12.0988 25.8452 11.5214C24.4512 10.9439 22.9172 10.7928 21.4373 11.0872C19.9574 11.3816 18.598 12.1082 17.5311 13.1751C16.4641 14.2421 15.7375 15.6015 15.4432 17.0814C15.1488 18.5613 15.2999 20.0952 15.8773 21.4892C16.4547 22.8833 17.4326 24.0748 18.6872 24.9131C19.9418 25.7514 21.4168 26.1988 22.9257 26.1988ZM20.0584 14.2786C20.9071 13.7115 21.9049 13.4088 22.9256 13.4088C24.2938 13.4106 25.6055 13.955 26.5729 14.9225C27.5405 15.89 28.0848 17.2017 28.0866 18.57C28.0865 19.5906 27.7839 20.5883 27.2168 21.437C26.6497 22.2857 25.8437 22.9472 24.9007 23.3378C23.9576 23.7284 22.92 23.8306 21.9188 23.6315C20.9177 23.4323 19.9981 22.9408 19.2764 22.219C18.5546 21.4973 18.0631 20.5777 17.8639 19.5766C17.6648 18.5754 17.767 17.5378 18.1576 16.5947C18.5482 15.6517 19.2097 14.8457 20.0584 14.2786Z" fill="#F26E63" stroke="#F26E63" stroke-width="0.4"/>
</svg>
