<svg width="33" height="33" viewBox="0 0 33 33" fill="none" xmlns="http://www.w3.org/2000/svg">
<path d="M12.1025 26.6049C15.2297 26.9634 18.3761 26.1827 20.9685 24.415L28.3377 31.7853C28.3378 31.7853 28.3378 31.7853 28.3379 31.7854C28.7949 32.2427 29.4148 32.4998 30.0613 32.5C30.7079 32.5002 31.3281 32.2436 31.7854 31.7865C32.2427 31.3294 32.4998 30.7094 32.5 30.0628C32.5002 29.4162 32.2436 28.7959 31.7866 28.3386L31.7865 28.3384L24.4153 20.9662C26.1821 18.3716 26.9611 15.2232 26.6003 12.0948C26.2223 8.8163 24.6205 5.80148 22.1153 3.65347C19.6102 1.50545 16.3865 0.382648 13.0891 0.509718C9.79181 0.636789 6.66405 2.00436 4.3316 4.3388C1.99916 6.67324 0.63405 9.80239 0.509359 13.1002C0.384669 16.3981 1.50959 19.6214 3.65909 22.1253C5.8086 24.6293 8.82416 26.2292 12.1025 26.6049ZM23.7509 13.5915C23.7509 14.9254 23.4882 16.2462 22.9778 17.4785C22.4674 18.7109 21.7193 19.8306 20.7763 20.7738C19.8332 21.717 18.7136 22.4652 17.4815 22.9756C16.2493 23.4861 14.9287 23.7488 13.595 23.7488C12.2613 23.7488 10.9407 23.4861 9.70856 22.9756C8.47641 22.4652 7.35683 21.717 6.41377 20.7738C5.47071 19.8306 4.72263 18.7109 4.21224 17.4785C3.70186 16.2462 3.43917 14.9254 3.43917 13.5915C3.43917 10.8975 4.50917 8.31397 6.41377 6.4091C8.31837 4.50424 10.9015 3.43411 13.595 3.43411C16.2885 3.43411 18.8717 4.50424 20.7763 6.4091C22.6809 8.31397 23.7509 10.8975 23.7509 13.5915Z" fill="#FE6F61" stroke="#FE6F61"/>
</svg>
