<svg width="46" height="45" viewBox="0 0 46 45" fill="none" xmlns="http://www.w3.org/2000/svg">
<path d="M23.0018 44.7H23.002C28.8874 44.6929 34.5297 42.3516 38.6911 38.1899C42.8526 34.0281 45.1934 28.3856 45.2 22.5002V22.5C45.2 18.1092 43.8979 13.817 41.4585 10.1662C39.0191 6.51535 35.5518 3.66992 31.4952 1.98971C27.4385 0.3095 22.9748 -0.130029 18.6683 0.726708C14.3619 1.58344 10.4063 3.69797 7.3016 6.80287C4.19695 9.90778 2.08275 13.8636 1.22636 18.1701C0.369969 22.4766 0.809859 26.9403 2.4904 30.9968C4.17094 35.0533 7.01665 38.5203 10.6677 40.9595C14.3187 43.3986 18.611 44.7004 23.0018 44.7ZM23.0018 2.77562C28.2311 2.78172 33.2446 4.86178 36.9423 8.55951C40.64 12.2573 42.7201 17.2708 42.7262 22.5002C42.7265 26.4018 41.5698 30.2158 39.4024 33.46C37.235 36.7042 34.1543 39.2328 30.5497 40.726C26.9451 42.2193 22.9787 42.6101 19.1521 41.849C15.3254 41.0879 11.8104 39.2091 9.0515 36.4503C6.29264 33.6914 4.41387 30.1764 3.65279 26.3497C2.8917 22.5231 3.2825 18.5566 4.77574 14.9521C6.26898 11.3475 8.79761 8.26675 12.0418 6.09934C15.2861 3.93194 19.1001 2.77527 23.0018 2.77562Z" fill="white" stroke="white" stroke-width="0.4"/>
<path d="M23.4832 22.9888C23.0443 22.992 22.6191 23.1379 22.2756 23.4031C21.932 23.6684 21.6898 24.0377 21.5875 24.4523C21.4853 24.8668 21.5289 25.3026 21.7114 25.6903C21.8939 26.078 22.2049 26.3951 22.5946 26.5911V28.8554H24.225V26.6624C24.6459 26.4948 24.9939 26.1906 25.2096 25.8017C25.4253 25.4127 25.4954 24.9631 25.4078 24.5296C25.3203 24.0961 25.0806 23.7055 24.7296 23.4245C24.3786 23.1435 23.938 22.9895 23.4832 22.9888V22.9888Z" fill="white"/>
<path d="M30.4667 18.4783V15.0394C30.5068 13.2973 29.7437 11.6126 28.3444 10.3537C26.945 9.09484 25.0234 8.36442 23.0001 8.32227C20.9767 8.36442 19.0551 9.09484 17.6558 10.3537C16.2564 11.6126 15.4933 13.2973 15.5334 15.0394V18.4783H12.7334V32.1375C12.7334 32.5637 12.9301 32.9725 13.2801 33.2738C13.6302 33.5752 14.105 33.7445 14.6001 33.7445H31.4001C31.8951 33.7445 32.3699 33.5752 32.72 33.2738C33.0701 32.9725 33.2667 32.5637 33.2667 32.1375V18.4783H30.4667ZM17.4001 15.0394C17.3598 13.7235 17.9262 12.4473 18.9755 11.4898C20.0248 10.5323 21.4717 9.97124 23.0001 9.92923C24.5284 9.97124 25.9753 10.5323 27.0246 11.4898C28.0739 12.4473 28.6403 13.7235 28.6001 15.0394V18.4783H17.4001V15.0394ZM14.6001 32.1375V20.0853H31.4001V32.1375H14.6001Z" fill="white"/>
</svg>
