<?xml version="1.0" encoding="UTF-8"?>
<svg id="Layer_1" data-name="Layer 1" xmlns="http://www.w3.org/2000/svg" viewBox="0 0 457.02 78.13">
  <defs>
    <style>
      .cls-1 {
        fill: #fff;
      }
    </style>
  </defs>
  <path class="cls-1" d="M40.87,60.24l4.8,1.71-.39,.54c-.71,.99-1.53,1.96-2.44,2.86-4.42,4.42-9.84,6.67-16.11,6.67s-11.64-2.25-16.07-6.67c-4.42-4.42-6.66-9.84-6.66-16.11s2.24-11.65,6.66-16.07c4.43-4.42,9.84-6.67,16.07-6.67s11.69,2.25,16.11,6.67c.91,.9,1.73,1.85,2.44,2.81l.4,.54-4.81,1.77-.22-.27c-.4-.48-.83-.96-1.28-1.44-3.46-3.44-7.72-5.19-12.64-5.19s-9.13,1.76-12.6,5.22c-3.48,3.47-5.24,7.71-5.24,12.63s1.76,9.17,5.24,12.65c3.47,3.48,7.71,5.24,12.6,5.24s9.17-1.76,12.65-5.24c.45-.45,.87-.91,1.27-1.39l.22-.26Z"/>
  <path class="cls-1" d="M93.39,30.11v4.68c-.46-.55-.95-1.09-1.46-1.62-4.42-4.42-9.84-6.67-16.11-6.67s-11.64,2.25-16.06,6.67c-4.43,4.42-6.67,9.84-6.67,16.11s2.24,11.65,6.67,16.07c4.42,4.42,9.83,6.67,16.06,6.67s11.69-2.25,16.12-6.68c.51-.52,.99-1.06,1.45-1.61v7.15h4.65V30.11h-4.65Zm-17.57,37.02c-4.91,0-9.17-1.76-12.64-5.22-3.48-3.47-5.24-7.71-5.24-12.63s1.76-9.17,5.24-12.65c3.47-3.48,7.73-5.24,12.64-5.24s9.18,1.76,12.65,5.24c2.62,2.62,4.28,5.69,4.92,9.05v7.16c-.66,3.4-2.31,6.44-4.92,9.05-3.47,3.48-7.73,5.24-12.65,5.24Z"/>
  <path class="cls-1" d="M126.35,29.15v4.97l-.48,.02c-2.15,.11-4.44,1.35-6.8,3.71-3.34,3.32-5.11,7.36-5.24,12.01v21.02h-4.64V30.11h4.64v6.25c.55-.67,1.14-1.34,1.78-1.97,3.29-3.29,6.73-5.05,10.21-5.21l.53-.03Z"/>
  <path class="cls-1" d="M169.04,33.17c-4.42-4.42-9.83-6.67-16.09-6.67s-11.65,2.25-16.07,6.67c-4.43,4.42-6.67,9.84-6.67,16.11s2.24,11.65,6.67,16.07c4.42,4.42,9.83,6.67,16.07,6.67s11.68-2.25,16.09-6.67c4.41-4.43,6.64-9.83,6.64-16.07s-2.23-11.68-6.64-16.11Zm-16.09,33.96c-4.92,0-9.18-1.76-12.65-5.22-3.48-3.47-5.24-7.71-5.24-12.63,0-2.46,.44-4.75,1.31-6.87,.88-2.11,2.19-4.04,3.93-5.78,3.47-3.48,7.73-5.24,12.65-5.24s9.17,1.76,12.64,5.24c3.48,3.48,5.24,7.74,5.24,12.65s-1.76,9.16-5.24,12.63c-3.47,3.46-7.73,5.22-12.64,5.22Z"/>
  <rect class="cls-1" x="184.4" y="5.08" width="4.65" height="65.8"/>
  <g>
    <rect class="cls-1" x="201.01" y="30.11" width="4.65" height="40.77"/>
    <path class="cls-1" d="M207.48,20.12c0,1.16-.41,2.15-1.23,2.95-.8,.79-1.79,1.19-2.92,1.19s-2.11-.4-2.92-1.19c-.81-.8-1.22-1.79-1.22-2.95s.41-2.12,1.22-2.91c.81-.8,1.79-1.2,2.92-1.2s2.11,.4,2.92,1.2h.01c.81,.8,1.22,1.77,1.22,2.91Z"/>
  </g>
  <path class="cls-1" d="M249.85,43.76v27.12h-4.65v-26.78c0-3.22-1.18-6.01-3.51-8.3-2.34-2.28-5.15-3.44-8.34-3.44s-6,1.14-8.32,3.39c-1.24,1.23-2.17,2.53-2.77,3.83v31.3h-4.64V30.11h4.64v1.9c3.22-2.85,6.94-4.29,11.09-4.29,4.81,0,8.79,1.53,11.81,4.56,3.03,3.02,4.6,6.89,4.69,11.48Z"/>
  <path class="cls-1" d="M295.44,60.24l-.22,.26c-.4,.47-.82,.94-1.27,1.39-3.47,3.48-7.73,5.24-12.65,5.24-4.39,0-8.26-1.42-11.5-4.22l28.64-28.64-.32-.35c-.22-.25-.46-.5-.71-.75-.65-.66-1.32-1.27-1.98-1.82-4.02-3.22-8.77-4.85-14.13-4.85-6.23,0-11.64,2.25-16.06,6.67-4.43,4.42-6.67,9.83-6.67,16.07s2.24,11.69,6.67,16.11c4.42,4.42,9.82,6.67,16.06,6.67s11.69-2.25,16.11-6.67c.91-.91,1.73-1.87,2.45-2.86l.38-.54-4.8-1.71Zm-14.14-28.85c3.86,0,7.3,1.08,10.26,3.2l-24.9,24.9c-2.13-2.95-3.2-6.4-3.2-10.25,0-4.92,1.76-9.16,5.24-12.63,3.47-3.46,7.71-5.22,12.6-5.22Z"/>
  <path class="cls-1" d="M370.31,64.97l-1.23,1.12c-4.6,4.2-10.1,6.32-16.34,6.32-6.7,0-12.48-2.39-17.19-7.1s-7.11-10.5-7.11-17.19,2.39-12.45,7.11-17.18c4.71-4.72,10.49-7.12,17.19-7.12,6.24,0,11.74,2.13,16.34,6.32l1.22,1.11-4.11,3.74-1.01-.89c-3.57-3.17-7.64-4.72-12.44-4.72-5.22,0-9.55,1.8-13.25,5.49-3.69,3.7-5.49,8.03-5.49,13.25s1.8,9.58,5.49,13.27c3.7,3.69,8.03,5.49,13.25,5.49,4.8,0,8.87-1.54,12.44-4.72l1.01-.89,4.12,3.7Z"/>
  <path class="cls-1" d="M394.08,55.38c2.01-.79,3.86-2.01,5.49-3.64,3.12-3.12,4.7-6.94,4.7-11.36s-1.58-8.21-4.7-11.33c-2.6-2.6-5.8-4.18-9.51-4.68l-13.4-.02v47.53h5.51v-15.44h6.02l9.92,15.44h6.67l-10.7-16.5Zm-11.91-25.5h6.07c2.92,0,5.34,1.01,7.42,3.07,2.07,2.07,3.08,4.5,3.08,7.43s-1.01,5.37-3.09,7.44c-2.07,2.08-4.49,3.08-7.41,3.08h-6.07V29.88Z"/>
  <polygon class="cls-1" points="452.9 24.35 452.9 26.44 452.9 71.88 447.39 71.88 447.39 35.99 431.94 62.72 416.47 35.98 416.47 71.88 410.96 71.88 410.96 26.44 410.96 24.35 416.09 24.35 431.94 51.79 447.77 24.35 452.9 24.35"/>
</svg>