<svg xmlns="http://www.w3.org/2000/svg" width="96" height="108" viewBox="0 0 96 108">
    <g fill="none" fill-rule="evenodd" transform="translate(-12 -11)">
        <path fill="#FFF" fill-opacity="0" d="M0 0h120v120H0z"/>
        <circle cx="60" cy="62" r="48" fill="#A3ACBC" fill-opacity=".25"/>
        <path fill="#FFB348" d="M46.263 102.228h36.105v14H46.263z"/>
        <path fill="#FFF" d="M76.049 30.745l2.667-1.4a7.072 7.072 0 0 1 8.946 6.821v47.796c0 5.255-2.534 9.919-6.447 12.836v3.991H45.11v-3.484a16.047 16.047 0 0 1-6.239-7.958l-4.446-5.37-1.78-2.23L22.387 69.52a7.353 7.353 0 0 1 11.266-9.453l1.623 1.934 2.042 2.435.624.743V29.02a7.072 7.072 0 0 1 9.683-6.575l2.667 1.866v-5.238A7.072 7.072 0 0 1 57.364 12c3.232 0 5.927 1.948 6.802 5.13 0 .931.09 1.947.27 3.047 1.777-.867 2.665-1.333 2.663-1.398a7.072 7.072 0 0 1 8.95 6.82v5.146z"/>
        <path stroke="#2C3644" stroke-width="4" d="M77.382 32.078l2.667-1.399a7.072 7.072 0 0 1 8.946 6.821v47.795c0 5.256-2.534 9.92-6.446 12.836v3.992H46.443v-3.484a16.047 16.047 0 0 1-6.239-7.958l-4.446-5.37-1.78-2.231L23.72 70.855a7.353 7.353 0 0 1 11.266-9.453l1.623 1.934 2.043 2.434.624.744V30.352a7.072 7.072 0 0 1 9.682-6.575c.523.255.875.447 1.058.575.41.287.946.717 1.609 1.291v-5.238a7.072 7.072 0 0 1 7.072-7.072c3.233 0 5.927 1.948 6.802 5.13.18.77.27 1.787.27 3.047 1.777-.867 2.665-1.333 2.663-1.397a7.072 7.072 0 0 1 8.95 6.82v5.145zM65.7 20.333v34.26M51.8 20l-.2 34.26M77.3 32.333v22.26M46.316 102.28H82.42v14H46.316z"/>
    </g>
</svg>
