<svg xmlns="http://www.w3.org/2000/svg" width="96" height="110" viewBox="0 0 96 110">
    <g fill="none" fill-rule="evenodd" transform="translate(-12 -4)">
        <path fill="#FFF" fill-opacity="0" d="M0 0h120v120H0z"/>
        <circle cx="60" cy="62" r="48" fill="#A3ACBC" fill-opacity=".25"/>
        <path fill="#FFF" d="M37.917 97.424H70.07c2.34-3.651 4.304-9.24 5.89-16.77 1.586-7.527 2.154-14.051 1.705-19.571C84.54 37.297 88.26 24.305 88.822 22.107c.843-3.296-2.125-6.896-3.978-7.427-1.853-.53-6.19.038-7.18 3.297-.989 3.26-8.126 27.38-9.241 30.354-1.116 2.974-4.78 2.368-4.78-.667s-2.273-35.2-2.673-36.546c-.4-1.345-2.674-4.225-6.295-4.111-3.621.113-4.736 1.952-4.947 4.111-.14 1.44.59 13.516 2.19 36.228-.576-3.41-2.492-5.071-5.748-4.983-4.884.132-5.305 4.283-4.884 7.067.42 2.784-.675-3.07-5.832-2.084-5.158.985-4.758 2.482-5.158 5.817-.4 3.334-.295 17.564.4 27.492.463 6.619 2.87 12.208 7.221 16.769z"/>
        <path fill="#FFB348" d="M39.333 99.333H72V112H39.333z"/>
        <path stroke="#2C3644" stroke-width="4" d="M38.52 98.42h32.152c2.341-3.65 4.305-9.24 5.89-16.768 1.586-7.528 2.155-14.053 1.706-19.573 6.876-23.786 10.596-36.777 11.157-38.975.843-3.296-.275-6.823-3.312-8.094-3.037-1.27-6.856.705-7.845 3.964-.99 3.26-8.127 27.379-9.243 30.354-1.115 2.974-4.779 2.368-4.779-.667s-2.673-34.292-2.673-36.546c0-2.254-1.952-5.384-5.573-5.27-3.621.114-5.67 2.486-5.67 5.27 0 1.857.73 13.932 2.19 36.227-.575-3.967-2.491-5.628-5.747-4.983-4.884.968-5.305 4.284-4.884 7.067.42 2.784-1.074-3.417-5.832-2.75-4.758.666-4.758 3.149-5.158 6.484-.4 3.334-.295 17.563.4 27.492.463 6.619 2.87 12.208 7.221 16.769zM38.667 98.667h32.667v12.667H38.667z"/>
    </g>
</svg>
